<mxfile host="app.diagrams.net" agent="Mozilla/5.0 (Windows NT 10.0; Win64; x64) AppleWebKit/537.36 (KHTML, like Gecko) Chrome/133.0.0.0 Safari/537.36" version="26.0.16">
  <diagram name="Halaman-1" id="OJkMUySO_4miE0uckKfh">
    <mxGraphModel dx="1434" dy="696" grid="1" gridSize="10" guides="1" tooltips="1" connect="1" arrows="1" fold="1" page="1" pageScale="1" pageWidth="827" pageHeight="1169" math="0" shadow="0">
      <root>
        <mxCell id="0" />
        <mxCell id="1" parent="0" />
        <mxCell id="rTJDXpQakDy_0PMrJw-1-1" value="" style="rounded=0;whiteSpace=wrap;html=1;" parent="1" vertex="1">
          <mxGeometry x="110" y="40" width="580" height="450" as="geometry" />
        </mxCell>
        <mxCell id="rTJDXpQakDy_0PMrJw-1-2" value="RT/RW" style="shape=umlActor;verticalLabelPosition=bottom;verticalAlign=top;html=1;" parent="1" vertex="1">
          <mxGeometry x="730" y="260" width="30" height="60" as="geometry" />
        </mxCell>
        <mxCell id="rTJDXpQakDy_0PMrJw-1-3" value="Warga" style="shape=umlActor;verticalLabelPosition=bottom;verticalAlign=top;html=1;" parent="1" vertex="1">
          <mxGeometry x="40" y="260" width="30" height="60" as="geometry" />
        </mxCell>
        <mxCell id="rTJDXpQakDy_0PMrJw-1-8" value="Login" style="ellipse;whiteSpace=wrap;html=1;" parent="1" vertex="1">
          <mxGeometry x="350" y="390" width="110" height="60" as="geometry" />
        </mxCell>
        <mxCell id="rTJDXpQakDy_0PMrJw-1-9" value="Mengajukan permohonan surat" style="ellipse;whiteSpace=wrap;html=1;" parent="1" vertex="1">
          <mxGeometry x="170" y="130" width="110" height="60" as="geometry" />
        </mxCell>
        <mxCell id="rTJDXpQakDy_0PMrJw-1-10" value="Melihat status permohonan surat" style="ellipse;whiteSpace=wrap;html=1;" parent="1" vertex="1">
          <mxGeometry x="380" y="130" width="110" height="60" as="geometry" />
        </mxCell>
        <mxCell id="rTJDXpQakDy_0PMrJw-1-11" value="Melihat histori surat masuk/keluar" style="ellipse;whiteSpace=wrap;html=1;" parent="1" vertex="1">
          <mxGeometry x="535" y="310" width="110" height="60" as="geometry" />
        </mxCell>
        <mxCell id="rTJDXpQakDy_0PMrJw-1-12" value="Menerima dan menandatangani surat" style="ellipse;whiteSpace=wrap;html=1;" parent="1" vertex="1">
          <mxGeometry x="535" y="130" width="110" height="60" as="geometry" />
        </mxCell>
        <mxCell id="rTJDXpQakDy_0PMrJw-1-13" value="Melakukan input data KTP/KK" style="ellipse;whiteSpace=wrap;html=1;" parent="1" vertex="1">
          <mxGeometry x="140" y="290" width="110" height="60" as="geometry" />
        </mxCell>
        <mxCell id="rTJDXpQakDy_0PMrJw-1-14" value="Mengelola data KTP/KK warga" style="ellipse;whiteSpace=wrap;html=1;" parent="1" vertex="1">
          <mxGeometry x="535" y="220" width="110" height="60" as="geometry" />
        </mxCell>
        <mxCell id="rTJDXpQakDy_0PMrJw-1-21" value="" style="group" parent="1" vertex="1" connectable="0">
          <mxGeometry x="260" y="137" width="160" height="30" as="geometry" />
        </mxCell>
        <mxCell id="rTJDXpQakDy_0PMrJw-1-20" value="&amp;lt;&amp;lt;extend&amp;gt;&amp;gt;" style="text;html=1;align=center;verticalAlign=middle;whiteSpace=wrap;rounded=0;" parent="rTJDXpQakDy_0PMrJw-1-21" vertex="1">
          <mxGeometry x="50" width="60" height="30" as="geometry" />
        </mxCell>
        <mxCell id="rTJDXpQakDy_0PMrJw-1-22" value="" style="endArrow=classicThin;endFill=1;endSize=12;html=1;rounded=0;exitX=1;exitY=0.3333333333333333;exitDx=0;exitDy=0;exitPerimeter=0;entryX=0;entryY=0.5;entryDx=0;entryDy=0;" parent="1" source="rTJDXpQakDy_0PMrJw-1-3" target="rTJDXpQakDy_0PMrJw-1-9" edge="1">
          <mxGeometry width="160" relative="1" as="geometry">
            <mxPoint x="90" y="420.43" as="sourcePoint" />
            <mxPoint x="290" y="329.9952173913044" as="targetPoint" />
          </mxGeometry>
        </mxCell>
        <mxCell id="rTJDXpQakDy_0PMrJw-1-28" value="&lt;font style=&quot;font-size: 17px;&quot;&gt;Sistem Informasi Persuratan RT/RW&lt;/font&gt;" style="text;html=1;align=center;verticalAlign=middle;whiteSpace=wrap;rounded=0;" parent="1" vertex="1">
          <mxGeometry x="252.5" y="50" width="295" height="30" as="geometry" />
        </mxCell>
        <mxCell id="rTJDXpQakDy_0PMrJw-1-29" value="" style="endArrow=classicThin;endFill=1;endSize=12;html=1;rounded=0;exitX=1;exitY=0.3333333333333333;exitDx=0;exitDy=0;exitPerimeter=0;entryX=0;entryY=0.5;entryDx=0;entryDy=0;" parent="1" source="rTJDXpQakDy_0PMrJw-1-3" target="rTJDXpQakDy_0PMrJw-1-13" edge="1">
          <mxGeometry width="160" relative="1" as="geometry">
            <mxPoint x="80" y="320" as="sourcePoint" />
            <mxPoint x="180" y="200" as="targetPoint" />
          </mxGeometry>
        </mxCell>
        <mxCell id="rTJDXpQakDy_0PMrJw-1-19" value="" style="endArrow=classicThin;dashed=1;endFill=1;endSize=12;html=1;rounded=0;entryX=1;entryY=0.5;entryDx=0;entryDy=0;exitX=0;exitY=0.5;exitDx=0;exitDy=0;" parent="1" source="rTJDXpQakDy_0PMrJw-1-10" target="rTJDXpQakDy_0PMrJw-1-9" edge="1">
          <mxGeometry width="160" relative="1" as="geometry">
            <mxPoint x="300" y="227" as="sourcePoint" />
            <mxPoint x="460" y="227" as="targetPoint" />
          </mxGeometry>
        </mxCell>
        <mxCell id="rTJDXpQakDy_0PMrJw-1-32" value="" style="endArrow=classicThin;endFill=1;endSize=12;html=1;rounded=0;exitX=0;exitY=0.3333333333333333;exitDx=0;exitDy=0;exitPerimeter=0;entryX=1;entryY=0.5;entryDx=0;entryDy=0;" parent="1" source="rTJDXpQakDy_0PMrJw-1-2" target="rTJDXpQakDy_0PMrJw-1-12" edge="1">
          <mxGeometry width="160" relative="1" as="geometry">
            <mxPoint x="580" y="490" as="sourcePoint" />
            <mxPoint x="680" y="370" as="targetPoint" />
          </mxGeometry>
        </mxCell>
        <mxCell id="rTJDXpQakDy_0PMrJw-1-33" value="" style="endArrow=classicThin;endFill=1;endSize=12;html=1;rounded=0;exitX=0;exitY=0.3333333333333333;exitDx=0;exitDy=0;exitPerimeter=0;entryX=1;entryY=0.5;entryDx=0;entryDy=0;" parent="1" source="rTJDXpQakDy_0PMrJw-1-2" target="rTJDXpQakDy_0PMrJw-1-14" edge="1">
          <mxGeometry width="160" relative="1" as="geometry">
            <mxPoint x="610" y="410" as="sourcePoint" />
            <mxPoint x="710" y="290" as="targetPoint" />
          </mxGeometry>
        </mxCell>
        <mxCell id="rTJDXpQakDy_0PMrJw-1-34" value="" style="endArrow=classicThin;endFill=1;endSize=12;html=1;rounded=0;exitX=0;exitY=0.3333333333333333;exitDx=0;exitDy=0;exitPerimeter=0;entryX=1;entryY=0.5;entryDx=0;entryDy=0;" parent="1" source="rTJDXpQakDy_0PMrJw-1-2" target="rTJDXpQakDy_0PMrJw-1-11" edge="1">
          <mxGeometry width="160" relative="1" as="geometry">
            <mxPoint x="730" y="310" as="sourcePoint" />
            <mxPoint x="645" y="280" as="targetPoint" />
          </mxGeometry>
        </mxCell>
        <mxCell id="rTJDXpQakDy_0PMrJw-1-37" value="" style="curved=1;endArrow=classic;html=1;rounded=0;dashed=1;entryX=0.5;entryY=0;entryDx=0;entryDy=0;exitX=0;exitY=0.5;exitDx=0;exitDy=0;" parent="1" source="rTJDXpQakDy_0PMrJw-1-12" target="rTJDXpQakDy_0PMrJw-1-8" edge="1">
          <mxGeometry width="50" height="50" relative="1" as="geometry">
            <mxPoint x="440" y="315" as="sourcePoint" />
            <mxPoint x="490" y="265" as="targetPoint" />
            <Array as="points">
              <mxPoint x="440" y="340" />
            </Array>
          </mxGeometry>
        </mxCell>
        <mxCell id="rTJDXpQakDy_0PMrJw-1-38" value="" style="curved=1;endArrow=classic;html=1;rounded=0;dashed=1;exitX=0;exitY=1;exitDx=0;exitDy=0;" parent="1" source="rTJDXpQakDy_0PMrJw-1-14" edge="1">
          <mxGeometry width="50" height="50" relative="1" as="geometry">
            <mxPoint x="545" y="211" as="sourcePoint" />
            <mxPoint x="444" y="400" as="targetPoint" />
            <Array as="points">
              <mxPoint x="510" y="320" />
              <mxPoint x="490" y="366" />
            </Array>
          </mxGeometry>
        </mxCell>
        <mxCell id="rTJDXpQakDy_0PMrJw-1-39" value="" style="curved=1;endArrow=classic;html=1;rounded=0;dashed=1;entryX=1;entryY=0.5;entryDx=0;entryDy=0;exitX=0.5;exitY=1;exitDx=0;exitDy=0;" parent="1" source="rTJDXpQakDy_0PMrJw-1-11" target="rTJDXpQakDy_0PMrJw-1-8" edge="1">
          <mxGeometry width="50" height="50" relative="1" as="geometry">
            <mxPoint x="663" y="350" as="sourcePoint" />
            <mxPoint x="533" y="400" as="targetPoint" />
            <Array as="points">
              <mxPoint x="570" y="410" />
              <mxPoint x="510" y="415" />
            </Array>
          </mxGeometry>
        </mxCell>
        <mxCell id="rTJDXpQakDy_0PMrJw-1-40" value="" style="group;rotation=-225;" parent="1" vertex="1" connectable="0">
          <mxGeometry x="370" y="220" width="160" height="81" as="geometry" />
        </mxCell>
        <mxCell id="rTJDXpQakDy_0PMrJw-1-41" value="&amp;lt;&amp;lt;include&amp;gt;&amp;gt;" style="text;html=1;align=center;verticalAlign=middle;whiteSpace=wrap;rounded=0;rotation=-70;" parent="rTJDXpQakDy_0PMrJw-1-40" vertex="1">
          <mxGeometry x="60" y="40" width="60" height="30" as="geometry" />
        </mxCell>
        <mxCell id="rTJDXpQakDy_0PMrJw-1-44" value="&amp;lt;&amp;lt;include&amp;gt;&amp;gt;" style="text;html=1;align=center;verticalAlign=middle;whiteSpace=wrap;rounded=0;rotation=-70;" parent="1" vertex="1">
          <mxGeometry x="470" y="301" width="60" height="30" as="geometry" />
        </mxCell>
        <mxCell id="rTJDXpQakDy_0PMrJw-1-45" value="&amp;lt;&amp;lt;include&amp;gt;&amp;gt;" style="text;html=1;align=center;verticalAlign=middle;whiteSpace=wrap;rounded=0;rotation=-10;" parent="1" vertex="1">
          <mxGeometry x="490" y="384" width="60" height="30" as="geometry" />
        </mxCell>
        <mxCell id="rTJDXpQakDy_0PMrJw-1-46" value="" style="curved=1;endArrow=classic;html=1;rounded=0;dashed=1;entryX=0;entryY=0;entryDx=0;entryDy=0;exitX=0.5;exitY=1;exitDx=0;exitDy=0;" parent="1" source="rTJDXpQakDy_0PMrJw-1-9" target="rTJDXpQakDy_0PMrJw-1-8" edge="1">
          <mxGeometry width="50" height="50" relative="1" as="geometry">
            <mxPoint x="295" y="260" as="sourcePoint" />
            <mxPoint x="204" y="499" as="targetPoint" />
            <Array as="points">
              <mxPoint x="330" y="330" />
            </Array>
          </mxGeometry>
        </mxCell>
        <mxCell id="rTJDXpQakDy_0PMrJw-1-27" value="&amp;lt;&amp;lt;include&amp;gt;&amp;gt;" style="text;html=1;align=center;verticalAlign=middle;whiteSpace=wrap;rounded=0;rotation=-315;" parent="1" vertex="1">
          <mxGeometry x="300" y="294" width="60" height="30" as="geometry" />
        </mxCell>
        <mxCell id="rTJDXpQakDy_0PMrJw-1-35" value="" style="group;rotation=-240;" parent="1" vertex="1" connectable="0">
          <mxGeometry x="210" y="354" width="160" height="30" as="geometry" />
        </mxCell>
        <mxCell id="rTJDXpQakDy_0PMrJw-1-36" value="&amp;lt;&amp;lt;include&amp;gt;&amp;gt;" style="text;html=1;align=center;verticalAlign=middle;whiteSpace=wrap;rounded=0;rotation=-330;" parent="rTJDXpQakDy_0PMrJw-1-35" vertex="1">
          <mxGeometry x="50" width="60" height="30" as="geometry" />
        </mxCell>
        <mxCell id="rTJDXpQakDy_0PMrJw-1-47" value="" style="curved=1;endArrow=classic;html=1;rounded=0;dashed=1;entryX=0;entryY=0.5;entryDx=0;entryDy=0;exitX=1;exitY=1;exitDx=0;exitDy=0;" parent="1" source="rTJDXpQakDy_0PMrJw-1-13" target="rTJDXpQakDy_0PMrJw-1-8" edge="1">
          <mxGeometry width="50" height="50" relative="1" as="geometry">
            <mxPoint x="273" y="331" as="sourcePoint" />
            <mxPoint x="414" y="540" as="targetPoint" />
            <Array as="points">
              <mxPoint x="290" y="390" />
            </Array>
          </mxGeometry>
        </mxCell>
      </root>
    </mxGraphModel>
  </diagram>
</mxfile>
